# xmcd
#
# Track frame offsets: 
#        187
#        13767
#        30752
#        44950
#        55990
#        70257
#        91812
#        108877
#        127625
#        166050
#
# Disc length: 2572 seconds
#
# Revision: 2
# Processed by: cddbd v1.5PL3 Copyright (c) Steve Scherf et al.
# Submitted via: ExactAudioCopy v0.95a5
#
DISCID=730a0a0a
DTITLE=B.B. King - B.B. King...Best Of The Blues - (Lucille Talks Back
DTITLE=) - Disdc 1 of 3
DYEAR=1993
DGENRE=Blues
TTITLE0=Breaking Up Somebody's Home
TTITLE1=Everybody Lies A Little
TTITLE2=I Know The Price
TTITLE3=Lucille Talks Back
TTITLE4=Slow And Easy
TTITLE5=Gambler's Blues
TTITLE6=No Money, No Luck
TTITLE7=Hold On (I Feel Our Love Is Changing)
TTITLE8=To Know You Is To Love You
TTITLE9=I Like To Live The Love
EXTD=
EXTT0=
EXTT1=
EXTT2=
EXTT3=
EXTT4=
EXTT5=
EXTT6=
EXTT7=
EXTT8=
EXTT9=
PLAYORDER=
